<svg id="apartment-24px" xmlns="http://www.w3.org/2000/svg" width="24" height="24" viewBox="0 0 24 24">
  <g id="Group_23" data-name="Group 23">
    <rect id="Rectangle_43" data-name="Rectangle 43" width="24" height="24" fill="none"/>
  </g>
  <g id="Group_24" data-name="Group 24" transform="translate(-3 -1)">
    <path id="Path_20" data-name="Path 20" d="M19.333,12.333V3H7.667V7.667H3V24h9.333V19.333h2.333V24H24V12.333ZM7.667,21.667H5.333V19.333H7.667Zm0-4.667H5.333V14.667H7.667Zm0-4.667H5.333V10H7.667ZM12.333,17H10V14.667h2.333Zm0-4.667H10V10h2.333Zm0-4.667H10V5.333h2.333ZM17,17H14.667V14.667H17Zm0-4.667H14.667V10H17Zm0-4.667H14.667V5.333H17Zm4.667,14H19.333V19.333h2.333Zm0-4.667H19.333V14.667h2.333Z" fill="#bec3dd"/>
  </g>
</svg>
