<?xml version="1.0" encoding="iso-8859-1"?>
<!-- Generator: Adobe Illustrator 19.0.0, SVG Export Plug-In . SVG Version: 6.00 Build 0)  -->
<svg version="1.1" id="Layer_1" xmlns="http://www.w3.org/2000/svg" xmlns:xlink="http://www.w3.org/1999/xlink" x="0px" y="0px"
width="15" height="15" viewBox="0 0 510.735 510.735" style="enable-background:new 0 0 510.735 510.735;" xml:space="preserve">
<g>
	<g>
		<path d="M294.266,257.818l-42.667-42.667c-3.904-3.904-10.133-4.181-14.379-0.661L20.708,394.928
			C8.314,405.253,0.783,420.442,0.058,436.57c-0.725,16.128,5.397,31.915,16.811,43.328l12.651,12.651
			c10.901,10.88,25.344,16.875,40.725,16.875c17.152,0,33.28-7.552,44.267-20.715l180.416-216.512
			C298.447,267.952,298.17,261.722,294.266,257.818z M98.127,475.034c-13.12,15.723-39.019,16.939-53.525,2.432l-12.651-12.651
			c-7.296-7.296-11.051-17.003-10.581-27.285c0.469-10.304,5.077-19.605,13.013-26.219l209.045-174.208l28.885,28.907
			L98.127,475.034z" fill="#bec3dd"/>
	</g>
</g>
<g>
	<g>
		<path d="M443.599,193.818l-128-128c-4.16-4.16-10.923-4.16-15.083,0L193.85,172.485c-4.16,4.16-4.16,10.923,0,15.083l128,128
			c2.091,2.069,4.821,3.115,7.552,3.115s5.461-1.045,7.531-3.115l106.667-106.667C447.759,204.741,447.759,197.978,443.599,193.818z
			 M329.402,292.933L216.484,180.016l91.584-91.584l112.917,112.917L329.402,292.933z" fill="#bec3dd"/>
	</g>
</g>
<g>
	<g>
		<path d="M491.194,198.725c-18.069-18.069-49.515-18.069-67.584,0l-96.832,96.832c-18.624,18.645-18.624,48.96,0.043,67.627
			c12.075,12.075,28.16,18.731,45.248,18.731c17.109,0,33.173-6.656,45.248-18.731l73.92-73.92
			C516.175,264.325,516.175,223.706,491.194,198.725z M476.154,274.16l-73.92,73.92c-16.107,16.107-44.181,16.149-60.373-0.043
			c-4.992-4.992-7.744-11.648-7.744-18.709s2.752-13.717,7.744-18.709l96.832-96.832c4.992-4.992,11.648-7.744,18.709-7.744
			s13.717,2.752,18.752,7.787C492.794,230.469,492.794,257.52,476.154,274.16z" fill="#bec3dd"/>
	</g>
</g>
<g>
	<g>
		<path d="M310.65,18.181c-24.171-24.171-66.325-24.171-90.496,0l-73.92,73.92c-24.939,24.939-24.939,65.536,0.043,90.539
			c9.024,9.024,21.035,13.995,33.792,13.995c12.779,0,24.768-4.971,33.792-13.995l96.832-96.832
			C329.317,67.162,329.317,36.848,310.65,18.181z M295.61,70.725l-96.832,96.832c-10.005,10.005-27.371,10.048-37.461-0.043
			c-16.64-16.64-16.64-43.691,0-60.331l73.92-73.941c8.043-8.043,18.773-12.48,30.165-12.48c11.413,0,22.123,4.437,30.208,12.544
			c4.992,4.992,7.744,11.648,7.744,18.709C303.354,59.077,300.602,65.733,295.61,70.725z" fill="#bec3dd"/>
	</g>
</g>
<g>
	<g>
		<path d="M457.402,446.682H332.068c-29.397,0-53.333,23.936-53.333,53.333c0,5.888,4.779,10.667,10.667,10.667h210.667
			c5.909,0,10.667-4.779,10.667-10.667C510.735,470.618,486.799,446.682,457.402,446.682z M301.903,489.349
			c4.395-12.416,16.277-21.333,30.165-21.333h125.333c13.909,0,25.771,8.917,30.187,21.333H301.903z" fill="#bec3dd"/>
	</g>
</g>
</svg>
