<svg xmlns="http://www.w3.org/2000/svg" width="20" height="20.086" viewBox="0 0 20 20.086">
  <path id="calendar" d="M79.678,64.365c0-.3,0-.574,0-.856a1.225,1.225,0,0,0-.874-1.164,1.276,1.276,0,0,0-1.409.429,1.3,1.3,0,0,0-.271.829v.748a.217.217,0,0,1-.218.216H75.554a.216.216,0,0,1-.218-.216c0-.257,0-.5,0-.755a1.279,1.279,0,0,0-2.557-.08c-.007.275,0,.553,0,.831a.217.217,0,0,1-.218.216H71.17a.216.216,0,0,1-.218-.216,7.658,7.658,0,0,0-.011-1.028,1.136,1.136,0,0,0-.835-.971,1.235,1.235,0,0,0-1.255.248,1.278,1.278,0,0,0-.438,1.058c0,.234,0,.468,0,.714a.217.217,0,0,1-.218.216H64.418a.216.216,0,0,0-.218.216V82.144a.217.217,0,0,0,.218.216H83.982a.216.216,0,0,0,.218-.216V64.8a.217.217,0,0,0-.218-.216H79.9A.215.215,0,0,1,79.678,64.365ZM70.2,81.506H65.29a.216.216,0,0,1-.218-.216V77.859a.217.217,0,0,1,.218-.216H70.2a.216.216,0,0,1,.218.216v3.429A.216.216,0,0,1,70.2,81.506Zm0-4.744H65.29a.216.216,0,0,1-.218-.216V72.919a.217.217,0,0,1,.218-.216H70.2a.216.216,0,0,1,.218.216v3.626A.217.217,0,0,1,70.2,76.761Zm0-4.935H65.29a.216.216,0,0,1-.218-.216V68.129a.217.217,0,0,1,.218-.216H70.2a.216.216,0,0,1,.218.216v3.482A.216.216,0,0,1,70.2,71.827Zm6.537,9.681H71.547a.216.216,0,0,1-.218-.216V77.87a.217.217,0,0,1,.218-.216h5.192a.216.216,0,0,1,.218.216v3.424A.214.214,0,0,1,76.738,81.508Zm.23-4.863c0,.067-.1.119-.225.119h-5.2a.216.216,0,0,1-.218-.216V72.919c0-.119.057-.218.124-.223l.124-.007c1.71,0,3.417,0,5.125,0,.207,0,.278.046.275.264-.009,1.191,0,2.387-.007,3.578A1,1,0,0,1,76.968,76.644Zm.007-4.946c0,.067-.1.122-.218.122H71.542a.216.216,0,0,1-.218-.216V68.116c0-.119.057-.216.129-.216h.129c1.71,0,3.417,0,5.125,0,.207,0,.275.048.271.264-.009,1.141,0,2.277,0,3.417V71.7Zm1.1,1.012H83.1a.216.216,0,0,1,.218.216V76.55a.217.217,0,0,1-.218.216H78.072a.216.216,0,0,1-.218-.216V72.924A.217.217,0,0,1,78.072,72.71Zm5.031,8.8H78.072a.216.216,0,0,1-.218-.216V77.865a.217.217,0,0,1,.218-.216H83.1a.216.216,0,0,1,.218.216V81.29A.212.212,0,0,1,83.1,81.506Zm0-9.686H78.072a.216.216,0,0,1-.218-.216V68.132a.217.217,0,0,1,.218-.216H83.1a.216.216,0,0,1,.218.216V71.6A.212.212,0,0,1,83.1,71.82Z" transform="translate(-64.2 -62.274)" fill="#bec3dd"/>
</svg>
