<svg xmlns="http://www.w3.org/2000/svg" width="23.913" height="22.533" viewBox="0 0 23.913 22.533">
  <path id="chart-pie" d="M10.474,41.223a.374.374,0,0,1-.041-.253l1.825-9.685a.385.385,0,0,0-.323-.452A10.384,10.384,0,1,0,14.47,50.664.91.91,0,0,0,14.9,49.39l-4.429-8.166Zm12.765-3.867a.719.719,0,0,0-.976-.39l-8.03,3.814a.715.715,0,0,0-.323.985l4.237,7.815a.717.717,0,0,0,1.021.258,10.391,10.391,0,0,0,4.07-12.483ZM13.43,38.593l7.9-3.752a.549.549,0,0,0,.249-.756,10.421,10.421,0,0,0-6.641-5.115.546.546,0,0,0-.662.433L12.657,38A.547.547,0,0,0,13.43,38.593Z" transform="translate(-0.025 -28.955)" fill="#fff"/>
</svg>
