<svg xmlns="http://www.w3.org/2000/svg" width="28.562" height="29.258" viewBox="0 0 28.562 29.258">
  <path id="company" d="M86.93,66.873a2.257,2.257,0,1,0-1.956-2.237A2.11,2.11,0,0,0,86.93,66.873Zm-1.073-2.845a1.111,1.111,0,0,0,1.07.608c.508,0,1.394-.057,1.394.277a1.394,1.394,0,0,1-2.788,0A1.361,1.361,0,0,1,85.857,64.028ZM84.135,71.34h5.587a.555.555,0,0,0,.558-.558V69.107A1.676,1.676,0,0,0,88.6,67.432H87.324l.127.117a.155.155,0,0,1,0,.224l-.267.247a.24.24,0,0,0-.06.247l.515,1.25a.316.316,0,0,1-.03.267l-.588.866a.1.1,0,0,1-.174,0l-.588-.869a.327.327,0,0,1-.03-.267l.515-1.25a.238.238,0,0,0-.06-.247l-.271-.247a.155.155,0,0,1,0-.224l.127-.117h-1.28A1.676,1.676,0,0,0,83.583,69.1v1.675A.546.546,0,0,0,84.135,71.34Zm.836,13.614a1.972,1.972,0,1,0,1.956-2.237,2.112,2.112,0,0,0-1.956,2.237Zm3.353.277a1.394,1.394,0,1,1-2.461-.889,1.111,1.111,0,0,0,1.07.608C87.438,84.951,88.324,84.894,88.324,85.232Zm.281,2.514H87.324l.127.117a.152.152,0,0,1,0,.221l-.267.247a.24.24,0,0,0-.06.247l.515,1.25a.316.316,0,0,1-.03.267l-.588.866a.1.1,0,0,1-.174,0l-.588-.863a.327.327,0,0,1-.03-.267l.515-1.25a.238.238,0,0,0-.06-.247l-.271-.247a.152.152,0,0,1,0-.221l.127-.117h-1.28a1.676,1.676,0,0,0-1.675,1.675V91.1a.555.555,0,0,0,.558.558h5.587a.555.555,0,0,0,.558-.558V89.424A1.687,1.687,0,0,0,88.6,87.746Zm7.151-2.792a1.972,1.972,0,1,0,1.953-2.237A2.111,2.111,0,0,0,95.756,84.954Zm3.35.277a1.394,1.394,0,1,1-2.461-.889,1.111,1.111,0,0,0,1.07.608C98.22,84.951,99.106,84.894,99.106,85.232Zm.281,2.514H98.107l.127.117a.152.152,0,0,1,0,.221l-.267.247a.24.24,0,0,0-.06.247l.515,1.25a.316.316,0,0,1-.03.267l-.588.866a.1.1,0,0,1-.174,0L97.04,90.1a.327.327,0,0,1-.03-.267l.515-1.25a.238.238,0,0,0-.06-.247l-.271-.247a.152.152,0,0,1,0-.221l.127-.117H96.034a1.676,1.676,0,0,0-1.675,1.675V91.1a.555.555,0,0,0,.558.558H100.5a.555.555,0,0,0,.558-.558V89.421A1.676,1.676,0,0,0,99.387,87.746Zm-23.534-.558A2.257,2.257,0,1,0,73.9,84.954,2.107,2.107,0,0,0,75.853,87.188Zm-1.07-2.842a1.111,1.111,0,0,0,1.07.608c.508,0,1.394-.06,1.394.277a1.394,1.394,0,1,1-2.788,0A1.344,1.344,0,0,1,74.783,84.346Zm2.745,3.4H76.248l.127.117a.152.152,0,0,1,0,.221l-.267.247a.24.24,0,0,0-.06.247l.515,1.25a.316.316,0,0,1-.03.267l-.6.863a.1.1,0,0,1-.174,0l-.588-.866a.327.327,0,0,1-.03-.267l.515-1.25a.238.238,0,0,0-.06-.247l-.271-.247a.152.152,0,0,1,0-.221l.127-.117H74.175A1.674,1.674,0,0,0,72.5,89.418v1.675a.555.555,0,0,0,.558.558h5.587a.555.555,0,0,0,.558-.558V89.418A1.673,1.673,0,0,0,77.528,87.746Zm-1.595-6.606a.733.733,0,0,0,.736-.736V77.472H86.2v2.935a.734.734,0,1,0,1.468,0V77.475h9.525v2.932a.734.734,0,1,0,1.468,0V76.74A.733.733,0,0,0,97.923,76H87.659V73.8a.734.734,0,0,0-1.468,0V76H75.934a.733.733,0,0,0-.732.736v3.668A.732.732,0,0,0,75.934,81.139Z" transform="translate(-72.5 -62.4)" fill="#bec3dd"/>
</svg>
