<svg xmlns="http://www.w3.org/2000/svg" width="22.048" height="22.177" viewBox="0 0 22.048 22.177">
  <path id="files-stack" d="M82.582,73.39l.137-.872a.465.465,0,0,0-.441-.573H69.969a.464.464,0,0,0-.441.573l.137.872a.638.638,0,0,0,.593.537H81.989A.635.635,0,0,0,82.582,73.39Zm-.94,2.038H70.608a.411.411,0,0,0-.416.487l.117.745a.563.563,0,0,0,.542.454H81.4a.566.566,0,0,0,.542-.454l.117-.745A.413.413,0,0,0,81.642,75.427Zm5.228,2.925a.973.973,0,0,0-.745-.342H66.046a.99.99,0,0,0-.745.342.978.978,0,0,0-.228.788l.806,5.537H86.3l.8-5.54a.992.992,0,0,0-.231-.786Zm-19.207-.981-1.039-6.929A1.547,1.547,0,0,1,68.17,68.9H83.935a1.545,1.545,0,0,1,1.546,1.543l-.922,6.848H85.94l.922-6.848a2.927,2.927,0,0,0-2.93-2.925H68.17a2.93,2.93,0,0,0-2.93,2.925l1.042,6.929Zm.93-10.958H82.967l.251-1.08a.37.37,0,0,0-.071-.314.376.376,0,0,0-.289-.137H68.692a.362.362,0,0,0-.294.144.373.373,0,0,0-.068.322ZM70,64.031H81.548l.2-1.1a.346.346,0,0,0-.081-.3.363.363,0,0,0-.284-.134H70.154a.368.368,0,0,0-.365.443Z" transform="translate(-65.062 -62.5)" fill="#fff"/>
</svg>
