<svg xmlns="http://www.w3.org/2000/svg" width="21" height="26.678" viewBox="0 0 21 26.678">
  <path id="hand" d="M174.988,66.6a1.542,1.542,0,0,0-1.536,1.536v6.673a.51.51,0,0,1-.509.509.516.516,0,0,1-.518-.509V65.064a1.536,1.536,0,1,0-3.073,0v8.722a.514.514,0,0,1-1.027,0V64.036a1.536,1.536,0,1,0-3.073,0v9.749a.514.514,0,0,1-1.027,0V66.091a1.536,1.536,0,0,0-3.073,0V78.916l-2.079-2.847a2,2,0,0,0-2.7-.719,1.94,1.94,0,0,0-.485,2.716s3.35,5.067,4.78,7.237,3.744,3.875,8.069,3.875c7.161,0,7.8-5.53,7.8-7.182V68.14A1.56,1.56,0,0,0,174.988,66.6Z" transform="translate(-155.542 -62.5)" fill="#fff"/>
</svg>
