<svg xmlns="http://www.w3.org/2000/svg" width="28.438" height="25.447" viewBox="0 0 28.438 25.447">
  <path id="law-order" d="M14.773,76.773c-.256,0-.324-.111-.33-.327-.009-.287-.011-.574-.028-.859a1.185,1.185,0,0,0-1.169-1.214q-5.418-.013-10.838,0a1.16,1.16,0,0,0-1.149.978,4.973,4.973,0,0,0-.037.9c-.014.535.108.54-.515.5-.122-.009-.25.009-.373-.006-.25-.028-.358.048-.336.324.026.3,0,.6,0,.9H15.634c0-.1-.009-.2-.006-.3C15.643,76.8,15.643,76.793,14.773,76.773Zm12.45-7.437C23,67.135,18.785,64.911,14.565,62.7c-.236-.122-.239-.219-.117-.424.407-.683.793-1.379,1.2-2.065.111-.182.119-.273-.094-.4q-3.383-1.937-6.757-3.9c-.2-.117-.3-.122-.429.108q-1.932,3.387-3.9,6.757c-.114.2-.108.279.1.4q3.387,1.941,6.757,3.9c.21.125.307.105.427-.111.355-.646.731-1.274,1.1-1.911.245-.421.242-.421.66-.156q6,3.788,12,7.582a1.918,1.918,0,0,0,1.12.384,1.762,1.762,0,0,0,1.8-1.658A1.873,1.873,0,0,0,27.223,69.336ZM9.145,54.755q3.6,2.082,7.2,4.158a1.139,1.139,0,0,0,.9.151,1.2,1.2,0,0,0,.267-2.25c-1.084-.634-2.176-1.26-3.262-1.888-1.294-.745-2.579-1.5-3.879-2.232a1.193,1.193,0,0,0-1.843,1.021A1.165,1.165,0,0,0,9.145,54.755Zm-6.6,11.39c.768.461,1.547.9,2.323,1.348,1.627.938,3.248,1.885,4.88,2.815a1.212,1.212,0,0,0,1.84-1.146,1.18,1.18,0,0,0-.651-.938q-3.583-2.073-7.172-4.141a1.118,1.118,0,0,0-.859-.156,1.182,1.182,0,0,0-.944.947,1.161,1.161,0,0,0,.583,1.271Z" transform="translate(0.004 -52.512)" fill="#fff"/>
</svg>
