<svg xmlns="http://www.w3.org/2000/svg" width="17.808" height="23.76" viewBox="0 0 17.808 23.76">
  <path id="notepad" d="M187.808,63.808c0-.236.014-.453,0-.665a.646.646,0,0,0-.663-.646.668.668,0,0,0-.652.69c-.005.2,0,.4,0,.614h-.654c0-.212.008-.407,0-.6a.668.668,0,1,0-1.333.011c-.005.193,0,.386,0,.606h-.652c0-.217,0-.4,0-.587a.677.677,0,0,0-.638-.733.662.662,0,0,0-.682.714c-.008.193,0,.386,0,.584h-.665v-.3c0-.7-.2-1-.66-1s-.646.3-.646.983V63.8h-.671c0-.234.014-.445-.005-.66a.644.644,0,0,0-.663-.641.668.668,0,0,0-.652.69c-.005.2,0,.4,0,.614h-.652c0-.193,0-.367,0-.54a.673.673,0,1,0-1.336-.014c-.005.182,0,.367,0,.554h-.652c0-.19,0-.367,0-.54a.68.68,0,0,0-.635-.758c-.4-.019-.671.269-.684.744-.005.179,0,.367,0,.576h-2.3V86.257h17.808V63.808Zm-11.663,5.675c.831-.005,1.662,0,2.493,0H181.2c1.678,0,3.354,0,5.032,0a.551.551,0,0,1,.606.69.519.519,0,0,1-.467.424,1.261,1.261,0,0,1-.176.008H176.21c-.415,0-.66-.209-.665-.554A.552.552,0,0,1,176.145,69.484Zm0,2.265c.836-.005,1.678,0,2.517,0h2.566c1.667,0,3.34,0,5.007,0a.555.555,0,0,1,.614.665.531.531,0,0,1-.475.448,1.278,1.278,0,0,1-.176.005q-5,0-9.99,0c-.415,0-.66-.209-.665-.554a.553.553,0,0,1,.6-.562Zm0,6.8c.855-.005,1.711,0,2.566,0h2.517c1.667,0,3.337,0,5.007,0a.554.554,0,0,1,.614.665.531.531,0,0,1-.475.448c-.06.005-.117.005-.176.005h-9.99c-.415,0-.66-.209-.665-.557a.553.553,0,0,1,.6-.562Zm10.118,3.386c-.812.005-1.627,0-2.441,0h-2.618q-2.517,0-5.032,0a.555.555,0,0,1-.608-.69.528.528,0,0,1,.47-.426,1.266,1.266,0,0,1,.176-.005h9.99c.415,0,.66.209.665.554a.556.556,0,0,1-.6.568Zm0-4.532c-.839.005-1.678,0-2.517,0h-2.566q-2.5,0-5.007,0a.556.556,0,0,1-.614-.668.533.533,0,0,1,.475-.448,1.279,1.279,0,0,1,.176-.005h9.99c.415,0,.66.209.665.554A.554.554,0,0,1,186.266,77.4Zm0-2.267c-.839.005-1.678,0-2.517,0H181.18c-1.667,0-3.337,0-5.007,0a.554.554,0,0,1-.614-.665.533.533,0,0,1,.475-.448c.06-.005.117-.005.176-.005h9.99c.415,0,.66.209.665.557A.548.548,0,0,1,186.266,75.132Z" transform="translate(-172.3 -62.497)" fill="#fff"/>
</svg>
